:SAMPLES-PER-SECOND 30
:FULLY-SPECIFIED
:DEGREES
113
root  -23.6332 39.0821 8.46441 -16.4352 -77.6412 8.84366
RightUpLeg  18.6386 -19.1598 -15.4265
RightLeg  33.3064 3.19186 1.96161
RightFoot  -5.36107 -0.913258 16.7895
RightToes  0.00048216 0.542163 -0.142577
Spine  9.74427 6.05451 20.4838
Spine1  -0.775598 12.6127 -27.2635
HEad  1.24848 -5.47842 -7.01064
LeftShoulder1  7.44066 -14.589 -35.0547
LeftArm  -30.3595 -5.69134 -11.8444
LeftForeArm  56.7696 -67.4634 -20.966
LeftHand  -0.25398 0.0180481 5.50724
RightShoulder  0.283949 -12.4814 -13.1742
RightArm  -175.015 77.2 -99.7912
RightForeArm  31.159 28.5895 4.50723
RightHand  -2.6754 10.2489 -20.5408
LeftUpLeg  -14.9131 9.12831 -9.95384
LeftLeg  21.235 7.53076 3.63093
LeftFoot  -0.990897 -1.05055 11.5588
LeftToes  1.06245e-005 4.65855e-005 -8.18504e-006
114
root  -24.6548 38.8916 8.79193 -22.5995 -76.404 13.9839
RightUpLeg  13.1201 -15.4089 -15.7947
RightLeg  44.9968 0.83159 0.58637
RightFoot  4.12825 -2.06522 15.5492
RightToes  0.00048216 0.542163 -0.142577
Spine  10.2983 5.8165 19.2472
Spine1  1.6973 13.0428 -27.1085
HEad  -0.236563 -3.14984 -8.25951
LeftShoulder1  8.08458 -15.004 -37.5435
LeftArm  -27.9269 -6.95986 -12.625
LeftForeArm  53.5875 -64.4574 -18.1032
LeftHand  -0.25398 0.0180481 5.50724
RightShoulder  0.0222017 -8.95481 -10.0074
RightArm  175.032 81.2147 -114.591
RightForeArm  24.9923 29.3308 4.98862
RightHand  -1.38382 2.84417 -19.6184
LeftUpLeg  -13.3111 8.06514 -11.36
LeftLeg  24.3726 8.29358 4.41185
LeftFoot  -4.47842 -0.633806 11.0022
LeftToes  1.06245e-005 4.65855e-005 -8.18504e-006
115
root  -25.5491 38.7666 9.10568 -29.9998 -75.8101 20.566
RightUpLeg  6.07661 -11.1565 -16.0414
RightLeg  56.1467 -0.140813 -0.633141
RightFoot  11.6998 -2.32699 11.7294
RightToes  0.00048216 0.542163 -0.142577
Spine  11.0868 5.86446 17.8933
Spine1  4.23736 13.6615 -26.8762
HEad  -1.52677 -0.636127 -10.2954
LeftShoulder1  8.64935 -15.3187 -39.7171
LeftArm  -24.872 -7.63447 -13.975
LeftForeArm  49.376 -58.9392 -14.1986
LeftHand  -0.25398 0.0180481 5.50724
RightShoulder  -0.0349817 -4.7159 -6.36531
RightArm  135.551 84.4594 -157.122
RightForeArm  24.5377 26.9005 4.43831
RightHand  -1.86655 5.01851 -20.9757
LeftUpLeg  -11.1918 8.97785 -13.0825
LeftLeg  25.4868 8.26871 4.61099
LeftFoot  -6.58267 -0.423957 11.1429
LeftToes  1.06245e-005 4.65855e-005 -8.18504e-006
116
root  -26.4278 38.7834 9.43368 -33.7992 -75.1416 23.7241
RightUpLeg  -0.67274 -7.98092 -15.7578
RightLeg  64.2178 -0.504831 -1.74399
RightFoot  13.5059 -1.82715 8.66322
RightToes  0.00048216 0.542163 -0.142577
Spine  11.6451 5.56399 17.4769
Spine1  6.22859 13.8812 -26.9442
HEad  -2.07351 1.80982 -12.29
LeftShoulder1  9.04255 -15.4713 -41.3216
LeftArm  -20.8676 -8.09745 -15.6836
LeftForeArm  46.0641 -50.7448 -10.2178
LeftHand  -0.25398 0.0180481 5.50724
RightShoulder  0.190813 -0.675695 -1.91899
RightArm  71.6438 81.9235 136.273
RightForeArm  19.7039 22.6183 3.98412
RightHand  -1.66747 3.75395 -21.2901
LeftUpLeg  -8.75763 9.6819 -14.0563
LeftLeg  25.4557 7.96907 4.45713
LeftFoot  -7.83567 -0.307987 11.552
LeftToes  1.06245e-005 4.65855e-005 -8.18504e-006
117
root  -27.326 39.0015 9.78139 -32.8494 -74.3722 22.2914
RightUpLeg  -6.52545 -5.70729 -14.493
RightLeg  67.7616 -0.99092 -3.38075
RightFoot  11.6855 -1.3679 7.10912
RightToes  0.00048216 0.542163 -0.142577
Spine  11.7961 4.95252 18.1075
Spine1  7.79221 13.7645 -26.8761
HEad  -1.47362 4.37093 -13.0693
LeftShoulder1  9.38475 -15.5214 -42.8784
LeftArm  -14.8135 -8.80735 -17.4459
LeftForeArm  42.8704 -39.6759 -6.55543
LeftHand  -0.25398 0.0180481 5.50724
RightShoulder  0.842184 3.22026 4.5472
RightArm  39.54 76.154 100.496
RightForeArm  14.2186 16.8381 5.12896
RightHand  -1.48638 2.55773 -21.7625
LeftUpLeg  -5.76987 9.7531 -13.9197
LeftLeg  24.0711 7.49233 3.98663
LeftFoot  -8.85783 -0.190745 11.2007
LeftToes  1.06245e-005 4.65855e-005 -8.18504e-006
118
root  -28.2512 39.273 10.1214 -30.0896 -73.7209 19.2622
RightUpLeg  -11.6501 -3.123 -12.555
RightLeg  67.2136 -1.67192 -5.06126
RightFoot  9.25236 -1.05739 6.15936
RightToes  0.00048216 0.542163 -0.142577
Spine  11.6141 4.63056 18.3889
Spine1  9.46494 13.5058 -25.614
HEad  -0.656644 6.56187 -13.2712
LeftShoulder1  9.81576 -15.5504 -44.884
LeftArm  -6.16937 -9.23742 -19.103
LeftForeArm  37.866 -27.0202 -4.15718
LeftHand  -0.25398 0.0180481 5.50724
RightShoulder  2.17768 7.19911 13.3424
RightArm  31.5456 66.7911 90.3904
RightForeArm  18.7296 9.66294 7.74338
RightHand  -1.67385 4.03509 -20.6914
LeftUpLeg  -2.69171 10.0822 -13.1304
LeftLeg  22.0517 6.56644 3.27231
LeftFoot  -9.68513 -0.0944265 10.5669
LeftToes  1.06245e-005 4.65855e-005 -8.18504e-006
119
root  -29.2313 39.5325 10.4654 -26.3149 -72.9391 15.2701
RightUpLeg  -15.7478 -0.360356 -10.3705
RightLeg  63.3632 -2.52303 -6.03815
RightFoot  7.35526 -0.656742 4.28673
RightToes  0.00048216 0.542163 -0.142577
Spine  11.3356 4.44562 17.7247
Spine1  11.1983 12.7795 -22.7743
HEad  -0.54415 8.32823 -13.6341
LeftShoulder1  10.2892 -15.5589 -47.1028
LeftArm  -1.04783 -8.15625 -20.4793
LeftForeArm  35.9955 -15.2257 -5.21714
LeftHand  -0.25398 0.0180481 5.50724
RightShoulder  4.12493 10.752 22.7162
RightArm  12.2103 59.9422 64.6605
RightForeArm  26.9193 2.78553 8.94584
RightHand  -1.0579 1.96875 -16.5884
LeftUpLeg  0.45818 10.2247 -11.9311
LeftLeg  19.8575 5.46149 2.38084
LeftFoot  -10.1511 -0.0487245 10.5771
LeftToes  1.06245e-005 4.65855e-005 -8.18504e-006
